<?xml version="1.0" encoding="UTF-8" standalone="no"?>
<!-- Created with Inkscape (http://www.inkscape.org/) -->

<svg
   width="120"
   height="120"
   viewBox="0 0 12 12"
   version="1.1"
   id="svg5"
   xmlSpace="preserve"
   xmlns="http://www.w3.org/2000/svg"
   xmlnsSvg="http://www.w3.org/2000/svg"><defs
     id="defs2"><filter
       style="color-interpolation-filters:sRGB"
       id="filter13282"
       x="-0.033950478"
       y="-0.022632467"
       width="1.067901"
       height="1.045265"><feGaussianBlur
         stdDeviation="0.037194787"
         id="feGaussianBlur13284" /></filter><filter
       style="color-interpolation-filters:sRGB"
       id="filter23283"
       x="-0.019114424"
       y="-0.018542673"
       width="1.0382288"
       height="1.0370854"><feGaussianBlur
         stdDeviation="0.034977769"
         id="feGaussianBlur23285" /></filter><filter
       style="color-interpolation-filters:sRGB"
       id="filter24940"
       x="-0.070834108"
       y="-0.070834205"
       width="1.1416682"
       height="1.1416684"><feGaussianBlur
         stdDeviation="0.017379219"
         id="feGaussianBlur24942" /></filter></defs><g
     id="layer2"
     transform="translate(-0.32916665,-0.32916667)"><path
       id="path2674"
       style="opacity:1;fill:#2e2e2e;fill-opacity:1;fill-rule:nonzero;stroke-width:0.569643;stroke-dasharray:none"
       d="M 0.85369466,6.3489665 H 0.52916667 a 5.8208332,5.8208332 0 0 0 0,0.00103 A 5.8208332,5.8208332 0 0 0 6.35,12.170833 5.8208332,5.8208332 0 0 0 12.170833,6.35 a 5.8208332,5.8208332 0 0 0 0,-5.168e-4 5.8208332,5.8208332 0 0 0 0,-5.167e-4 h -0.324528 a 5.4963188,5.3375678 0 0 1 0,0.00103 5.4963188,5.3375678 0 0 1 -0.01292,0.3643188 5.4963188,5.3375678 0 0 1 -0.03824,0.3622518 5.4963188,5.3375678 0 0 1 -0.06356,0.3591512 5.4963188,5.3375678 0 0 1 -0.08888,0.3545004 5.4963188,5.3375678 0 0 1 -0.113688,0.3472656 5.4963188,5.3375678 0 0 1 -0.137976,0.3389974 5.4963188,5.3375678 0 0 1 -0.160714,0.3291789 5.4963188,5.3375678 0 0 1 -0.183968,0.31781 5.4963188,5.3375678 0 0 1 -0.206189,0.3043742 5.4963188,5.3375678 0 0 1 -0.226859,0.2904216 5.4963188,5.3375678 0 0 1 -0.246497,0.2749186 5.4963188,5.3375678 0 0 1 -0.2651,0.257866 5.4963188,5.3375678 0 0 1 -0.2831869,0.239262 5.4963188,5.3375678 0 0 1 -0.2986897,0.220141 5.4963188,5.3375678 0 0 1 -0.3141928,0.199987 5.4963188,5.3375678 0 0 1 -0.3271118,0.178801 5.4963188,5.3375678 0 0 1 -0.3389974,0.15658 5.4963188,5.3375678 0 0 1 -0.3488159,0.133324 5.4963188,5.3375678 0 0 1 -0.3576009,0.110588 5.4963188,5.3375678 0 0 1 -0.3648356,0.0863 5.4963188,5.3375678 0 0 1 -0.3700033,0.06201 5.4963188,5.3375678 0 0 1 -0.3731038,0.03721 A 5.4963188,5.3375678 0 0 1 6.35,11.687659 5.4963188,5.3375678 0 0 1 5.9748291,11.675256 5.4963188,5.3375678 0 0 1 5.6017253,11.638049 5.4963188,5.3375678 0 0 1 5.231722,11.576038 5.4963188,5.3375678 0 0 1 4.8668864,11.489738 5.4963188,5.3375678 0 0 1 4.5092855,11.37915 5.4963188,5.3375678 0 0 1 4.1604696,11.245825 5.4963188,5.3375678 0 0 1 3.8214722,11.089246 5.4963188,5.3375678 0 0 1 3.4943604,10.910445 5.4963188,5.3375678 0 0 1 3.1801676,10.710457 5.4963188,5.3375678 0 0 1 2.8814779,10.490316 5.4963188,5.3375678 0 0 1 2.598291,10.251054 5.4963188,5.3375678 0 0 1 2.3331909,9.9931885 5.4963188,5.3375678 0 0 1 2.0866943,9.7182699 5.4963188,5.3375678 0 0 1 1.8598348,9.4278483 5.4963188,5.3375678 0 0 1 1.6536458,9.1234741 5.4963188,5.3375678 0 0 1 1.4696777,8.8056641 5.4963188,5.3375678 0 0 1 1.308964,8.4764852 5.4963188,5.3375678 0 0 1 1.170988,8.1374878 5.4963188,5.3375678 0 0 1 1.0572998,7.7902222 5.4963188,5.3375678 0 0 1 0.96841634,7.4357218 5.4963188,5.3375678 0 0 1 0.90485433,7.0765706 5.4963188,5.3375678 0 0 1 0.86661377,6.7143188 5.4963188,5.3375678 0 0 1 0.85369466,6.35 a 5.4963188,5.3375678 0 0 1 0,-0.00103 z" /><path
       id="path8182"
       style="opacity:1;fill:#595959;fill-opacity:1;fill-rule:nonzero;stroke-width:0.569643;stroke-dasharray:none"
       d="M 6.35,0.52916667 A 5.8208332,5.8208332 0 0 0 0.52916667,6.3489665 H 0.85369466 A 5.4963188,5.3375678 0 0 1 0.86919759,5.9510579 5.4963188,5.3375678 0 0 1 0.91518962,5.5546997 5.4963188,5.3375678 0 0 1 0.99167074,5.1624756 5.4963188,5.3375678 0 0 1 1.0981242,4.7769694 5.4963188,5.3375678 0 0 1 1.2335164,4.3997314 5.4963188,5.3375678 0 0 1 1.3978475,4.0338623 5.4963188,5.3375678 0 0 1 1.5900838,3.681429 5.4963188,5.3375678 0 0 1 1.8086751,3.3434652 5.4963188,5.3375678 0 0 1 2.0525879,3.0220378 5.4963188,5.3375678 0 0 1 2.3207886,2.7197306 5.4963188,5.3375678 0 0 1 2.6117269,2.4370605 5.4963188,5.3375678 0 0 1 2.9233358,2.1771281 5.4963188,5.3375678 0 0 1 3.2540649,1.9399333 5.4963188,5.3375678 0 0 1 3.6018473,1.7275431 5.4963188,5.3375678 0 0 1 3.9651326,1.5409912 5.4963188,5.3375678 0 0 1 4.3418538,1.381311 5.4963188,5.3375678 0 0 1 4.7299438,1.2495361 5.4963188,5.3375678 0 0 1 5.1268188,1.1461833 5.4963188,5.3375678 0 0 1 5.5309285,1.072286 5.4963188,5.3375678 0 0 1 5.9391724,1.0273275 5.4963188,5.3375678 0 0 1 6.35,1.0123413 a 5.4963188,5.3375678 0 0 1 0.1390096,0.00155 5.4963188,5.3375678 0 0 1 0.1395264,0.00517 5.4963188,5.3375678 0 0 1 0.1390096,0.00879 5.4963188,5.3375678 0 0 1 0.1384928,0.011886 5.4963188,5.3375678 0 0 1 0.1384929,0.015503 5.4963188,5.3375678 0 0 1 0.137976,0.018604 5.4963188,5.3375678 0 0 1 0.1369426,0.022221 5.4963188,5.3375678 0 0 1 0.1369425,0.025838 5.4963188,5.3375678 0 0 1 0.135909,0.028939 5.4963188,5.3375678 0 0 1 0.1353923,0.032039 5.4963188,5.3375678 0 0 1 0.1343587,0.035657 5.4963188,5.3375678 0 0 1 0.1333252,0.038757 5.4963188,5.3375678 0 0 1 0.1322917,0.041858 5.4963188,5.3375678 0 0 1 0.1312581,0.045475 5.4963188,5.3375678 0 0 1 0.1297079,0.048576 5.4963188,5.3375678 0 0 1 0.1286743,0.051676 5.4963188,5.3375678 0 0 1 0.1276408,0.054777 5.4963188,5.3375678 0 0 1 0.1255737,0.058394 5.4963188,5.3375678 0 0 1 0.1240234,0.060978 5.4963188,5.3375678 0 0 1 0.1229899,0.064079 5.4963188,5.3375678 0 0 1 0.1209229,0.067179 5.4963188,5.3375678 0 0 1 0.1188558,0.07028 5.4963188,5.3375678 0 0 1 0.1173055,0.072864 5.4963188,5.3375678 0 0 1 0.1152384,0.075448 5.4963188,5.3375678 0 0 1 0.1131714,0.079065 5.4963188,5.3375678 0 0 1 0.1111043,0.081132 5.4963188,5.3375678 0 0 1 0.1090373,0.084233 5.4963188,5.3375678 0 0 1 0.1069702,0.086816 5.4963188,5.3375678 0 0 1 0.1043868,0.0894 5.4963188,5.3375678 0 0 1 0.102319,0.091984 5.4963188,5.3375678 0 0 1 0.09974,0.094051 5.4963188,5.3375678 0 0 1 0.09715,0.097152 5.4963188,5.3375678 0 0 1 0.09457,0.099219 5.4963188,5.3375678 0 0 1 0.09198,0.1012858 5.4963188,5.3375678 0 0 1 0.0894,0.1038697 5.4963188,5.3375678 0 0 1 0.08682,0.1059367 5.4963188,5.3375678 0 0 1 0.08372,0.1080037 5.4963188,5.3375678 0 0 1 0.08113,0.109554 5.4963188,5.3375678 0 0 1 0.07803,0.1121379 5.4963188,5.3375678 0 0 1 0.07493,0.1136881 5.4963188,5.3375678 0 0 1 0.07235,0.1157552 5.4963188,5.3375678 0 0 1 0.06925,0.1173055 5.4963188,5.3375678 0 0 1 0.06563,0.1193726 5.4963188,5.3375678 0 0 1 0.06305,0.1204061 5.4963188,5.3375678 0 0 1 0.05994,0.1224731 5.4963188,5.3375678 0 0 1 0.05633,0.1235067 5.4963188,5.3375678 0 0 1 0.05323,0.125057 5.4963188,5.3375678 0 0 1 0.05013,0.1260905 5.4963188,5.3375678 0 0 1 0.04651,0.127124 5.4963188,5.3375678 0 0 1 0.04341,0.1286743 5.4963188,5.3375678 0 0 1 0.04031,0.1297079 5.4963188,5.3375678 0 0 1 0.03617,0.1302246 5.4963188,5.3375678 0 0 1 0.03359,0.1312581 5.4963188,5.3375678 0 0 1 0.02946,0.1322917 5.4963188,5.3375678 0 0 1 0.02636,0.1328084 5.4963188,5.3375678 0 0 1 0.02274,0.1333252 5.4963188,5.3375678 0 0 1 0.01964,0.133842 5.4963188,5.3375678 0 0 1 0.0155,0.1343587 5.4963188,5.3375678 0 0 1 0.0124,0.1348755 5.4963188,5.3375678 0 0 1 0.0088,0.1348755 5.4963188,5.3375678 0 0 1 0.0057,0.1348754 5.4963188,5.3375678 0 0 1 0.0015,0.1343588 h 0.324528 A 5.8208332,5.8208332 0 0 0 6.35,0.52916667 Z" /><ellipse
       style="display:inline;fill:none;fill-opacity:1;fill-rule:nonzero;stroke:#ffffff;stroke-width:0.0427586;stroke-dasharray:none;stroke-opacity:0.186441"
       id="path7996-4-7"
       cx="6.350112"
       cy="6.3504376"
       rx="5.7995658"
       ry="5.6596627" /></g><g
     id="layer1"
     style="display:inline;fill:#404040;fill-opacity:1"
     transform="translate(-0.32916665,-0.32916667)"><ellipse
       style="display:inline;opacity:1;fill:#404040;fill-opacity:1;fill-rule:nonzero;stroke:none;stroke-width:0.335496;stroke-dasharray:none;stroke-opacity:1"
       id="path8202"
       cx="6.3499999"
       cy="6.3499999"
       rx="5.8208332"
       ry="5.6620831" /><ellipse
       style="display:inline;opacity:1;fill:#404040;fill-opacity:1;fill-rule:nonzero;stroke:#333333;stroke-width:0.194067;stroke-dasharray:none;stroke-opacity:1"
       id="path7996"
       cx="6.3499999"
       cy="6.3632736"
       rx="4.9829664"
       ry="4.9697361" /></g><g
     id="layer7"
     style="display:inline"><ellipse
       style="display:inline;fill:none;fill-opacity:1;fill-rule:nonzero;stroke:#555555;stroke-width:0.0362969;stroke-dasharray:none;stroke-opacity:1"
       id="path7996-4"
       cx="6.3433852"
       cy="6.3666687"
       rx="4.8766432"
       ry="4.8501849"
       transform="translate(-0.32916665,-0.32916667)" /><circle
       style="display:inline;fill:none;fill-opacity:1;fill-rule:nonzero;stroke:#555555;stroke-width:0.03311;stroke-dasharray:none;stroke-opacity:1"
       id="path7996-4-5"
       cx="6.3500004"
       cy="6.3764586"
       r="4.4363828"
       transform="translate(-0.32916665,-0.32916667)" /><ellipse
       style="display:inline;fill:none;fill-opacity:1;fill-rule:nonzero;stroke:#555555;stroke-width:0.0292694;stroke-dasharray:none;stroke-opacity:1"
       id="path7996-4-5-9"
       cx="6.3500004"
       cy="6.3764582"
       rx="3.9217622"
       ry="3.921762"
       transform="translate(-0.32916665,-0.32916667)" /><circle
       style="display:inline;fill:none;fill-opacity:1;fill-rule:nonzero;stroke:#555555;stroke-width:0.0250531;stroke-dasharray:none;stroke-opacity:1"
       id="path7996-4-5-9-0"
       cx="6.3500004"
       cy="6.3764582"
       r="3.3568087"
       transform="translate(-0.32916665,-0.32916667)" /></g><g
     id="layer8"><path
       style="display:inline;opacity:0.327465;mix-blend-mode:normal;fill:none;fill-opacity:1;fill-rule:nonzero;stroke:#000000;stroke-width:0.2009;stroke-linecap:round;stroke-linejoin:round;stroke-dasharray:none;stroke-opacity:1;filter:url(#filter23283)"
       d="m 6.463524,1.4295633 c 1.2917843,0.015427 2.5695516,0.5581528 3.4775757,1.4770853 0.9080243,0.9189326 1.4354533,2.2030896 1.4354533,3.4949661 0,1.2918764 -0.527429,2.5760334 -1.4354533,3.494966 C 9.0330756,10.815513 7.7553083,11.358239 6.463524,11.373666 5.4402096,11.385887 4.4154413,11.072502 3.5739933,10.490019 2.7325452,9.9075355 2.0784205,9.0587241 1.7295633,8.0966325"
       id="path17969-2"
       transform="translate(-0.32916665,-0.32916667)" /><path
       style="display:inline;fill:none;fill-opacity:1;fill-rule:nonzero;stroke:#74e3f6;stroke-width:0.199676;stroke-linecap:round;stroke-linejoin:round;stroke-dasharray:none;stroke-opacity:1"
       d="m 6.4141301,1.4190047 c 1.2839148,0.015333 2.5538977,0.5547538 3.4563899,1.4680886 0.902492,0.9133347 1.426708,2.1896687 1.426708,3.4736751 0,1.2840063 -0.524216,2.5603403 -1.426708,3.473675 C 8.9680278,10.747778 7.6980449,11.287199 6.4141301,11.302532 5.3970493,11.314679 4.3785232,11.003204 3.5422005,10.424269 2.7058779,9.8453346 2.0557374,9.0016941 1.7090047,8.0454633"
       id="path17969-6"
       transform="translate(-0.32916665,-0.32916667)" /><path
       style="display:inline;opacity:1;fill:none;fill-opacity:1;fill-rule:nonzero;stroke:#0da9c4;stroke-width:0.2009;stroke-linecap:round;stroke-linejoin:round;stroke-dasharray:none;stroke-opacity:1"
       d="m 6.4235542,1.3895933 c 1.2917842,0.015427 2.5695513,0.558153 3.4775753,1.4770856 0.9080235,0.9189325 1.4354535,2.2030894 1.4354535,3.4949658 0,1.2918763 -0.52743,2.5760332 -1.4354535,3.4949657 C 8.9931055,10.775543 7.7153384,11.318269 6.4235542,11.333696 5.4002398,11.345917 4.3754714,11.032532 3.5340233,10.450049 2.6925752,9.8675659 2.0384504,9.0187546 1.689593,8.056663"
       id="path17969"
       transform="translate(-0.32916665,-0.32916667)" /></g><g
     id="layer6"
     style="display:inline"><ellipse
       style="display:inline;opacity:0.528169;mix-blend-mode:normal;fill:#000000;fill-opacity:1;fill-rule:nonzero;stroke:none;stroke-width:0.0611576;stroke-linecap:round;stroke-linejoin:round;stroke-dasharray:none;stroke-opacity:0.195219;filter:url(#filter24940)"
       id="path21723-3"
       cx="1.673298"
       cy="8.0341978"
       rx="0.2944212"
       ry="0.29442078"
       transform="translate(-0.32916665,-0.32916667)" /><ellipse
       style="display:inline;fill:#74e3f6;fill-opacity:1;fill-rule:nonzero;stroke:none;stroke-width:0.0611532;stroke-linecap:round;stroke-linejoin:round;stroke-dasharray:none;stroke-opacity:0.195219"
       id="path21723-0"
       cx="1.7032666"
       cy="7.9885664"
       rx="0.29440001"
       ry="0.29439959"
       transform="translate(-0.32916665,-0.32916667)" /><ellipse
       style="display:inline;opacity:1;fill:#0bbfde;fill-opacity:1;fill-rule:nonzero;stroke:none;stroke-width:0.0611576;stroke-linecap:round;stroke-linejoin:round;stroke-dasharray:none;stroke-opacity:0.195219"
       id="path21723"
       cx="1.6833216"
       cy="8.0141392"
       rx="0.2944212"
       ry="0.29442078"
       transform="translate(-0.32916665,-0.32916667)" /></g><g
     id="layer5"
     style="display:inline"
     transform="translate(-0.32916665,-0.32916667)"><circle
       style="opacity:1;fill:#1099b2;fill-opacity:1;fill-rule:nonzero;stroke:#ffffff;stroke-width:0.1;stroke-dasharray:none;stroke-opacity:0.186441"
       id="path11189"
       cx="6.3411345"
       cy="6.3742089"
       r="2.782289" /></g><g
     id="layer4"
     transform="translate(-0.32916665,-0.32916667)"><path
       id="path12350"
       style="opacity:1;fill-opacity:0.243523;stroke-width:0.0414812;stroke-opacity:0.186441"
       d="m 7.610582,4.660009 1.5103997,1.7179574 c 0,0 0.041922,0.4460005 -0.1967655,1.0211847 C 8.7603673,7.8636425 8.2979117,8.5163487 7.609865,8.8436504 7.1449589,9.1087899 6.5951833,9.1426522 6.5951833,9.1426522 L 5.5484111,8.2732127 5.5464864,7.149309 6.5935384,7.146649 6.5786834,4.6587986 Z" /><path
       fill="currentColor"
       d="M 6.3780876,4.9205311 V 6.7938229 C 6.1721354,6.6755099 5.9179808,6.6294995 5.6484899,6.723712 5.3548982,6.8288795 5.1292267,7.0896063 5.0766427,7.3963443 A 0.87792781,0.87792781 0 0 0 6.0823049,8.4151535 C 6.511738,8.3472337 6.816285,7.9528557 6.816285,7.516848 V 5.3587278 h 0.4381962 c 0.2410089,0 0.4381973,-0.1971887 0.4381973,-0.4381967 0,-0.2410083 -0.1971884,-0.4381969 -0.4381973,-0.4381969 H 6.816285 c -0.2410088,0 -0.4381974,0.1971886 -0.4381974,0.4381969 z"
       id="path10696-6"
       style="display:inline;opacity:0.283186;mix-blend-mode:normal;fill:#000000;fill-opacity:1;stroke-width:0.2191;filter:url(#filter13282)" /><path
       fill="currentColor"
       d="M 6.3381223,4.8404807 V 6.7137725 C 6.1321701,6.5954595 5.8780155,6.5494491 5.6085246,6.6436616 5.3149329,6.7488291 5.0892614,7.0095559 5.0366774,7.3162939 A 0.87792781,0.87792781 0 0 0 6.0423396,8.3351031 C 6.4717727,8.2671833 6.7763197,7.8728053 6.7763197,7.4367976 V 5.2786774 h 0.4381962 c 0.2410089,0 0.4381973,-0.1971887 0.4381973,-0.4381967 0,-0.2410083 -0.1971884,-0.4381969 -0.4381973,-0.4381969 H 6.7763197 c -0.2410088,0 -0.4381974,0.1971886 -0.4381974,0.4381969 z"
       id="path10696"
       style="display:inline;fill:#ffffff;fill-opacity:1;stroke-width:0.2191" /></g></svg>
